HIERARCHY
ROOT mixamorig:Hips
{
	OFFSET 0.000000 201.639420 0.000000
	CHANNELS 6 Xposition Yposition Zposition Xrotation Yrotation Zrotation
	JOINT mixamorig:Spine
	{
		OFFSET 0.006200 19.524994 -2.481800
		CHANNELS 3 Xrotation Yrotation Zrotation
		JOINT mixamorig:Spine1
		{
			OFFSET -0.000900 22.835007 -2.825400
			CHANNELS 3 Xrotation Yrotation Zrotation
			JOINT mixamorig:Spine2
			{
				OFFSET -0.020600 26.552490 -3.193300
				CHANNELS 3 Xrotation Yrotation Zrotation
				JOINT mixamorig:Neck
				{
					OFFSET -0.060000 30.701813 1.352200
					CHANNELS 3 Xrotation Yrotation Zrotation
					JOINT mixamorig:Head
					{
						OFFSET -0.087200 22.547607 3.670900
						CHANNELS 3 Xrotation Yrotation Zrotation
						JOINT mixamorig:HeadTop_End
						{
							OFFSET -0.830600 40.355194 7.893500
							CHANNELS 3 Xrotation Yrotation Zrotation
							End Site
							{
								OFFSET 0.000000 30.592346 0.000000
							}
						}
						JOINT mixamorig:RightEye
						{
							OFFSET -6.302100 18.118591 16.197100
							CHANNELS 3 Xrotation Yrotation Zrotation
							End Site
							{
								OFFSET 0.000000 30.592346 0.000000
							}
						}
						JOINT mixamorig:LeftEye
						{
							OFFSET 6.741500 18.382690 16.401899
							CHANNELS 3 Xrotation Yrotation Zrotation
							End Site
							{
								OFFSET 0.000000 30.592346 0.000000
							}
						}
					}
				}
				JOINT mixamorig:LeftShoulder
				{
					OFFSET 11.924900 18.230499 1.425400
					CHANNELS 3 Xrotation Yrotation Zrotation
					JOINT mixamorig:LeftArm
					{
						OFFSET 25.435989 -0.697632 -5.229300
						CHANNELS 3 Xrotation Yrotation Zrotation
						JOINT mixamorig:LeftForeArm
						{
							OFFSET 54.684776 0.000000 0.000000
							CHANNELS 3 Xrotation Yrotation Zrotation
							JOINT mixamorig:LeftHand
							{
								OFFSET 55.098175 0.000000 0.000000
								CHANNELS 3 Xrotation Yrotation Zrotation
								JOINT mixamorig:LeftHandMiddle1
								{
									OFFSET 23.369751 0.000000 0.000000
									CHANNELS 3 Xrotation Yrotation Zrotation
									JOINT mixamorig:LeftHandMiddle2
									{
										OFFSET 6.378677 0.000000 0.000000
										CHANNELS 3 Xrotation Yrotation Zrotation
										JOINT mixamorig:LeftHandMiddle3
										{
											OFFSET 6.148331 0.000000 0.000000
											CHANNELS 3 Xrotation Yrotation Zrotation
											JOINT mixamorig:LeftHandMiddle4
											{
												OFFSET 6.582504 0.000000 0.000000
												CHANNELS 3 Xrotation Yrotation Zrotation
												End Site
												{
													OFFSET -1.168900 6.395691 1.028606
												}
											}
										}
									}
								}
								JOINT mixamorig:LeftHandThumb1
								{
									OFFSET 7.235672 -3.848206 5.434273
									CHANNELS 3 Xrotation Yrotation Zrotation
									JOINT mixamorig:LeftHandThumb2
									{
										OFFSET 6.568451 -3.792297 3.792300
										CHANNELS 3 Xrotation Yrotation Zrotation
										JOINT mixamorig:LeftHandThumb3
										{
											OFFSET 6.063080 -3.500519 3.500518
											CHANNELS 3 Xrotation Yrotation Zrotation
											JOINT mixamorig:LeftHandThumb4
											{
												OFFSET 4.793182 -2.767334 2.767349
												CHANNELS 3 Xrotation Yrotation Zrotation
												End Site
												{
													OFFSET 0.101639 6.054260 1.275483
												}
											}
										}
									}
								}
								JOINT mixamorig:LeftHandIndex1
								{
									OFFSET 23.101074 -0.309540 4.992809
									CHANNELS 3 Xrotation Yrotation Zrotation
									JOINT mixamorig:LeftHandIndex2
									{
										OFFSET 6.226883 0.000000 0.000000
										CHANNELS 3 Xrotation Yrotation Zrotation
										JOINT mixamorig:LeftHandIndex3
										{
											OFFSET 6.094330 0.000000 0.000000
											CHANNELS 3 Xrotation Yrotation Zrotation
											JOINT mixamorig:LeftHandIndex4
											{
												OFFSET 5.482605 0.000000 0.000000
												CHANNELS 3 Xrotation Yrotation Zrotation
												End Site
												{
													OFFSET -1.427902 5.233032 0.797164
												}
											}
										}
									}
								}
								JOINT mixamorig:LeftHandRing1
								{
									OFFSET 22.299240 0.021149 -3.964172
									CHANNELS 3 Xrotation Yrotation Zrotation
									JOINT mixamorig:LeftHandRing2
									{
										OFFSET 6.321869 0.000000 0.000000
										CHANNELS 3 Xrotation Yrotation Zrotation
										JOINT mixamorig:LeftHandRing3
										{
											OFFSET 5.899796 0.000000 0.000000
											CHANNELS 3 Xrotation Yrotation Zrotation
											JOINT mixamorig:LeftHandRing4
											{
												OFFSET 6.517899 0.000000 0.000000
												CHANNELS 3 Xrotation Yrotation Zrotation
												End Site
												{
													OFFSET -1.637299 6.232208 0.980890
												}
											}
										}
									}
								}
								JOINT mixamorig:LeftHandPinky1
								{
									OFFSET 20.463791 -0.302338 -8.562233
									CHANNELS 3 Xrotation Yrotation Zrotation
									JOINT mixamorig:LeftHandPinky2
									{
										OFFSET 6.908646 0.000000 0.000000
										CHANNELS 3 Xrotation Yrotation Zrotation
										JOINT mixamorig:LeftHandPinky3
										{
											OFFSET 4.622849 0.000000 0.000000
											CHANNELS 3 Xrotation Yrotation Zrotation
											JOINT mixamorig:LeftHandPinky4
											{
												OFFSET 5.216080 0.000000 0.000000
												CHANNELS 3 Xrotation Yrotation Zrotation
												End Site
												{
													OFFSET -0.606308 5.116241 0.814926
												}
											}
										}
									}
								}
							}
						}
					}
				}
				JOINT mixamorig:RightShoulder
				{
					OFFSET -12.001300 18.284088 1.348900
					CHANNELS 3 Xrotation Yrotation Zrotation
					JOINT mixamorig:RightArm
					{
						OFFSET -25.308500 -0.751312 -5.164599
						CHANNELS 3 Xrotation Yrotation Zrotation
						JOINT mixamorig:RightForeArm
						{
							OFFSET -54.684429 0.000000 0.000000
							CHANNELS 3 Xrotation Yrotation Zrotation
							JOINT mixamorig:RightHand
							{
								OFFSET -55.150291 0.000000 0.000000
								CHANNELS 3 Xrotation Yrotation Zrotation
								JOINT mixamorig:RightHandMiddle1
								{
									OFFSET -23.317566 0.000000 0.000000
									CHANNELS 3 Xrotation Yrotation Zrotation
									JOINT mixamorig:RightHandMiddle2
									{
										OFFSET -6.378403 0.000000 0.000000
										CHANNELS 3 Xrotation Yrotation Zrotation
										JOINT mixamorig:RightHandMiddle3
										{
											OFFSET -6.148193 0.000000 0.000000
											CHANNELS 3 Xrotation Yrotation Zrotation
											JOINT mixamorig:RightHandMiddle4
											{
												OFFSET -6.583389 0.000000 0.000000
												CHANNELS 3 Xrotation Yrotation Zrotation
												End Site
												{
													OFFSET 1.171692 6.395905 1.029786
												}
											}
										}
									}
								}
								JOINT mixamorig:RightHandThumb1
								{
									OFFSET -7.190521 -3.860474 5.435846
									CHANNELS 3 Xrotation Yrotation Zrotation
									JOINT mixamorig:RightHandThumb2
									{
										OFFSET -6.567429 -3.791718 3.791708
										CHANNELS 3 Xrotation Yrotation Zrotation
										JOINT mixamorig:RightHandThumb3
										{
											OFFSET -6.062469 -3.500153 3.500166
											CHANNELS 3 Xrotation Yrotation Zrotation
											JOINT mixamorig:RightHandThumb4
											{
												OFFSET -4.792618 -2.767029 2.767022
												CHANNELS 3 Xrotation Yrotation Zrotation
												End Site
												{
													OFFSET -0.100327 6.053253 1.276754
												}
											}
										}
									}
								}
								JOINT mixamorig:RightHandIndex1
								{
									OFFSET -23.048981 -0.310791 4.992554
									CHANNELS 3 Xrotation Yrotation Zrotation
									JOINT mixamorig:RightHandIndex2
									{
										OFFSET -6.227539 0.000000 0.000000
										CHANNELS 3 Xrotation Yrotation Zrotation
										JOINT mixamorig:RightHandIndex3
										{
											OFFSET -6.095047 0.000000 0.000000
											CHANNELS 3 Xrotation Yrotation Zrotation
											JOINT mixamorig:RightHandIndex4
											{
												OFFSET -5.484772 0.000000 0.000000
												CHANNELS 3 Xrotation Yrotation Zrotation
												End Site
												{
													OFFSET 1.420593 5.237305 0.797056
												}
											}
										}
									}
								}
								JOINT mixamorig:RightHandRing1
								{
									OFFSET -22.246323 0.020569 -3.963762
									CHANNELS 3 Xrotation Yrotation Zrotation
									JOINT mixamorig:RightHandRing2
									{
										OFFSET -6.322128 0.000000 0.000000
										CHANNELS 3 Xrotation Yrotation Zrotation
										JOINT mixamorig:RightHandRing3
										{
											OFFSET -5.900024 0.000000 0.000000
											CHANNELS 3 Xrotation Yrotation Zrotation
											JOINT mixamorig:RightHandRing4
											{
												OFFSET -6.518356 0.000000 0.000000
												CHANNELS 3 Xrotation Yrotation Zrotation
												End Site
												{
													OFFSET 1.636398 6.232697 0.982186
												}
											}
										}
									}
								}
								JOINT mixamorig:RightHandPinky1
								{
									OFFSET -20.411011 -0.303314 -8.561701
									CHANNELS 3 Xrotation Yrotation Zrotation
									JOINT mixamorig:RightHandPinky2
									{
										OFFSET -6.907349 0.000000 0.000000
										CHANNELS 3 Xrotation Yrotation Zrotation
										JOINT mixamorig:RightHandPinky3
										{
											OFFSET -4.623840 0.000000 0.000000
											CHANNELS 3 Xrotation Yrotation Zrotation
											JOINT mixamorig:RightHandPinky4
											{
												OFFSET -5.218353 0.000000 0.000000
												CHANNELS 3 Xrotation Yrotation Zrotation
												End Site
												{
													OFFSET 0.602097 5.118835 0.816273
												}
											}
										}
									}
								}
							}
						}
					}
				}
			}
		}
	}
	JOINT mixamorig:LeftUpLeg
	{
		OFFSET 18.168400 -13.561905 -0.039000
		CHANNELS 3 Xrotation Yrotation Zrotation
		JOINT mixamorig:LeftLeg
		{
			OFFSET 0.577358 -80.825211 -3.695000
			CHANNELS 3 Xrotation Yrotation Zrotation
			JOINT mixamorig:LeftFoot
			{
				OFFSET -0.577356 -83.370262 -6.520700
				CHANNELS 3 Xrotation Yrotation Zrotation
				JOINT mixamorig:LeftToeBase
				{
					OFFSET 0.750401 -20.798306 25.135401
					CHANNELS 3 Xrotation Yrotation Zrotation
					JOINT mixamorig:LeftToe_End
					{
						OFFSET -0.000500 0.001200 19.917799
						CHANNELS 3 Xrotation Yrotation Zrotation
						End Site
						{
							OFFSET 0.000000 19.917805 0.000000
						}
					}
				}
			}
		}
	}
	JOINT mixamorig:RightUpLeg
	{
		OFFSET -18.162500 -13.585098 -0.041000
		CHANNELS 3 Xrotation Yrotation Zrotation
		JOINT mixamorig:RightLeg
		{
			OFFSET -0.595024 -80.945297 -3.631900
			CHANNELS 3 Xrotation Yrotation Zrotation
			JOINT mixamorig:RightFoot
			{
				OFFSET 0.595024 -83.218193 -6.561200
				CHANNELS 3 Xrotation Yrotation Zrotation
				JOINT mixamorig:RightToeBase
				{
					OFFSET -0.753601 -20.807106 25.115000
					CHANNELS 3 Xrotation Yrotation Zrotation
					JOINT mixamorig:RightToe_End
					{
						OFFSET 0.000299 0.001700 19.918200
						CHANNELS 3 Xrotation Yrotation Zrotation
						End Site
						{
							OFFSET 0.000000 19.918203 0.000000
						}
					}
				}
			}
		}
	}
}
MOTION
Frames: 4
Frame Time: 0.033333
211.317856 164.044586 -0.288520 -0.288793 -18.636741 -1.293554 11.428587 0.722762 2.695665 22.101720 1.389695 2.282825 20.095158 1.236939 2.320885 -1.809607 1.577622 -1.027645 -10.947085 4.254373 5.338318 0.000001 0.000000 -0.000001 0.000001 0.000000 -0.000001 0.000001 0.000000 -0.000001 -46.302826 -33.401859 -29.977168 -69.962557 -15.833063 -55.663426 -0.000013 -56.820583 -0.000011 -104.248542 8.232345 27.633398 0.405924 5.507044 -52.453158 3.387129 5.308601 -65.057463 0.282022 1.797454 -17.832374 -0.000000 0.000001 0.000001 1.675336 0.747180 2.739294 19.473185 -1.474883 7.636928 -4.536186 -9.613109 1.492975 0.000002 -0.000001 0.000001 -1.825854 2.184752 -39.717308 2.946930 5.081638 -60.198726 0.514360 2.402344 -24.166852 -0.000003 -0.000001 0.000002 -0.074385 5.736779 -61.061447 4.410145 5.671471 -75.719566 0.582654 2.548952 -25.747996 0.000000 -0.000001 0.000001 1.944003 6.950681 -64.681126 4.385188 5.665085 -75.466876 1.243298 3.609946 -37.998272 0.000000 0.000004 -0.000000 -0.685026 9.639625 7.793090 -60.099477 31.586541 52.711985 0.000014 117.402783 -0.000007 -28.920640 -35.834915 -17.614858 3.413054 -7.186256 51.650242 6.296821 -4.359600 110.634660 0.248730 -1.503057 18.790276 0.000002 -0.000000 -0.000000 8.377127 -4.904132 11.021998 21.620209 -18.183885 -18.379231 -0.702961 -49.821200 -32.535200 0.000002 0.000000 0.000000 -1.095824 1.416364 15.071675 1.397762 -3.328265 45.551983 0.615635 -2.316067 29.767832 0.000002 -0.000000 -0.000001 -3.349039 -2.600433 57.010554 5.440860 -4.590907 99.698161 1.689392 -3.590698 50.382245 -0.000001 0.000001 -0.000002 -3.996446 -3.303942 64.593864 4.058842 -4.618642 82.610523 2.315547 -4.026773 59.787207 0.000000 0.000000 0.000000 -62.919744 12.962284 -7.401252 63.811220 -9.106793 -4.296834 9.373842 -9.601969 -20.340908 -0.152961 -0.000000 0.000016 0.000003 -0.000001 -0.000003 -48.613868 -5.717555 -6.782440 86.800216 -0.884007 1.643137 -15.502805 -9.963296 10.833793 -17.678350 1.380326 -5.756705 0.000000 0.000002 -0.000000 
224.552887 161.096054 0.023556 -3.941493 -16.953288 -3.133444 11.407787 0.914498 2.298438 22.849162 1.387293 2.758046 20.552948 1.308996 2.799329 -1.195441 1.108979 -0.117137 -10.099345 3.533154 5.484590 0.000001 0.000000 -0.000002 0.000001 0.000000 -0.000002 0.000001 0.000000 -0.000002 -47.154677 -34.403065 -31.218315 -71.098499 -16.512957 -56.983544 -0.000002 -53.342046 0.000004 -101.511979 8.881504 27.989176 0.405923 5.507047 -52.453162 3.387129 5.308599 -65.057470 0.282022 1.797455 -17.832379 -0.000000 0.000001 0.000005 1.567986 0.456400 2.719341 19.473189 -1.474897 7.636928 -4.536189 -9.613106 1.492977 0.000003 0.000002 -0.000000 -1.882830 2.129403 -39.817028 2.947090 5.081745 -60.200522 0.514386 2.402398 -24.167383 -0.000001 0.000001 -0.000003 -0.074385 5.736786 -61.061447 4.422094 5.674489 -75.840412 0.582657 2.548953 -25.747998 -0.000000 0.000002 0.000001 2.216810 7.072469 -64.435438 4.422622 5.674616 -75.845754 1.294122 3.673948 -38.798473 0.000000 0.000002 0.000000 0.660575 10.462167 8.505267 -62.047542 29.389204 51.898984 -0.000037 117.518732 0.000050 -31.500976 -36.959059 -17.591231 3.413051 -7.186257 51.650246 6.296820 -4.359600 110.634660 0.248729 -1.503056 18.790274 0.000001 -0.000000 -0.000000 8.377125 -4.904130 11.021997 21.620209 -18.183886 -18.379231 -0.702959 -49.821196 -32.535200 -0.000001 -0.000001 0.000000 -1.101394 1.407127 15.159513 1.422353 -3.352163 45.974089 0.615635 -2.316066 29.767832 0.000001 -0.000000 -0.000001 -3.349042 -2.600431 57.010558 5.440860 -4.590906 99.698154 1.689391 -3.590699 50.382248 -0.000001 0.000001 0.000001 -3.996450 -3.303942 64.593864 4.058843 -4.618642 82.610523 2.315545 -4.026772 59.787200 0.000000 -0.000000 0.000000 -64.293028 6.606967 -0.693313 85.940254 -7.466975 -3.848995 -6.952181 -2.614405 -21.376084 -2.025108 0.000003 0.000017 -0.000001 -0.000001 -0.000001 -44.668075 -4.616227 -7.480649 85.330107 -8.985384 -0.319295 -22.354994 -9.398725 7.694194 -9.559004 -0.228493 3.653399 -0.000000 0.000002 -0.000000 
224.552887 161.096054 0.023556 -3.941493 -16.953288 -3.133444 11.407787 0.914498 2.298438 22.849162 1.387293 2.758046 20.552948 1.308996 2.799329 -1.195441 1.108979 -0.117137 -10.099345 3.533154 5.484590 0.000001 0.000000 -0.000002 0.000001 0.000000 -0.000002 0.000001 0.000000 -0.000002 -47.154677 -34.403065 -31.218315 -71.098499 -16.512957 -56.983544 -0.000002 -53.342046 0.000004 -101.511979 8.881504 27.989176 0.405923 5.507047 -52.453162 3.387129 5.308599 -65.057470 0.282022 1.797455 -17.832379 -0.000000 0.000001 0.000005 1.567986 0.456400 2.719341 19.473189 -1.474897 7.636928 -4.536189 -9.613106 1.492977 0.000003 0.000002 -0.000000 -1.882830 2.129403 -39.817028 2.947090 5.081745 -60.200522 0.514386 2.402398 -24.167383 -0.000001 0.000001 -0.000003 -0.074385 5.736786 -61.061447 4.422094 5.674489 -75.840412 0.582657 2.548953 -25.747998 -0.000000 0.000002 0.000001 2.216810 7.072469 -64.435438 4.422622 5.674616 -75.845754 1.294122 3.673948 -38.798473 0.000000 0.000002 0.000000 0.660575 10.462167 8.505267 -62.047542 29.389204 51.898984 -0.000037 117.518732 0.000050 -31.500976 -36.959059 -17.591231 3.413051 -7.186257 51.650246 6.296820 -4.359600 110.634660 0.248729 -1.503056 18.790274 0.000001 -0.000000 -0.000000 8.377125 -4.904130 11.021997 21.620209 -18.183886 -18.379231 -0.702959 -49.821196 -32.535200 -0.000001 -0.000001 0.000000 -1.101394 1.407127 15.159513 1.422353 -3.352163 45.974089 0.615635 -2.316066 29.767832 0.000001 -0.000000 -0.000001 -3.349042 -2.600431 57.010558 5.440860 -4.590906 99.698154 1.689391 -3.590699 50.382248 -0.000001 0.000001 0.000001 -3.996450 -3.303942 64.593864 4.058843 -4.618642 82.610523 2.315545 -4.026772 59.787200 0.000000 -0.000000 0.000000 -64.293028 6.606967 -0.693313 85.940254 -7.466975 -3.848995 -6.952181 -2.614405 -21.376084 -2.025108 0.000003 0.000017 -0.000001 -0.000001 -0.000001 -44.668075 -4.616227 -7.480649 85.330107 -8.985384 -0.319295 -22.354994 -9.398725 7.694194 -9.559004 -0.228493 3.653399 -0.000000 0.000002 -0.000000 
224.552887 161.096054 0.023556 -3.941493 -16.953288 -3.133444 11.407787 0.914498 2.298438 22.849162 1.387293 2.758046 20.552948 1.308996 2.799329 -1.195441 1.108979 -0.117137 -10.099345 3.533154 5.484590 0.000001 0.000000 -0.000002 0.000001 0.000000 -0.000002 0.000001 0.000000 -0.000002 -47.154677 -34.403065 -31.218315 -71.098499 -16.512957 -56.983544 -0.000002 -53.342046 0.000004 -101.511979 8.881504 27.989176 0.405923 5.507047 -52.453162 3.387129 5.308599 -65.057470 0.282022 1.797455 -17.832379 -0.000000 0.000001 0.000005 1.567986 0.456400 2.719341 19.473189 -1.474897 7.636928 -4.536189 -9.613106 1.492977 0.000003 0.000002 -0.000000 -1.882830 2.129403 -39.817028 2.947090 5.081745 -60.200522 0.514386 2.402398 -24.167383 -0.000001 0.000001 -0.000003 -0.074385 5.736786 -61.061447 4.422094 5.674489 -75.840412 0.582657 2.548953 -25.747998 -0.000000 0.000002 0.000001 2.216810 7.072469 -64.435438 4.422622 5.674616 -75.845754 1.294122 3.673948 -38.798473 0.000000 0.000002 0.000000 0.660575 10.462167 8.505267 -62.047542 29.389204 51.898984 -0.000037 117.518732 0.000050 -31.500976 -36.959059 -17.591231 3.413051 -7.186257 51.650246 6.296820 -4.359600 110.634660 0.248729 -1.503056 18.790274 0.000001 -0.000000 -0.000000 8.377125 -4.904130 11.021997 21.620209 -18.183886 -18.379231 -0.702959 -49.821196 -32.535200 -0.000001 -0.000001 0.000000 -1.101394 1.407127 15.159513 1.422353 -3.352163 45.974089 0.615635 -2.316066 29.767832 0.000001 -0.000000 -0.000001 -3.349042 -2.600431 57.010558 5.440860 -4.590906 99.698154 1.689391 -3.590699 50.382248 -0.000001 0.000001 0.000001 -3.996450 -3.303942 64.593864 4.058843 -4.618642 82.610523 2.315545 -4.026772 59.787200 0.000000 -0.000000 0.000000 -64.293028 6.606967 -0.693313 85.940254 -7.466975 -3.848995 -6.952181 -2.614405 -21.376084 -2.025108 0.000003 0.000017 -0.000001 -0.000001 -0.000001 -44.668075 -4.616227 -7.480649 85.330107 -8.985384 -0.319295 -22.354994 -9.398725 7.694194 -9.559004 -0.228493 3.653399 -0.000000 0.000002 -0.000000 
